<svg xmlns="http://www.w3.org/2000/svg" height="800" width="1200" viewBox="-44.7 -9.061775 387.4 54.37065"><defs><clipPath clipPathUnits="userSpaceOnUse" id="a"><path d="M0 0h841.89v595.276H0z"/></clipPath></defs><g clip-path="url(#a)" transform="matrix(2.3337 0 0 -2.3337 -833.3628 757.5157)"><path d="M466.731 316.5616h5.622l-2.837 4.457zm-9.282-6.986v1.939l1.96.223c.678.086.965.707 1.049.849l4.884 7.95c.397.625.009 1.174-.502 1.231l-2.566.302v1.959h11.132c.625 0 1.021-.425 1.276-.794l6.502-9.939c.512-.793.909-1.419 1.562-1.505l2.046-.229v-1.986H472.27v1.959l1.59.199c.767.084 1.392.426.767 1.363l-.596.91h-8.89l-.681-1.109c-.424-.68 0-1.08.654-1.164l1.59-.199v-1.959zm-10.5051 2.7849h-3.691v8.915h3.691c3.52 0 4.998-.825 4.998-4.458 0-3.664-1.478-4.457-4.998-4.457m2.213 11.668h-14.317l-.003-1.959 1.794-.185c.672-.098.943-.581.943-1.232v-7.782c0-.539-.228-1.053-.823-1.137l-1.922-.25v-1.902l14.328-.006c6.588 0 9.428 3.209 9.428 7.439 0 3.805-2.84 7.014-9.428 7.014m-92.0587-14.4532h11.583v1.932l-1.985.226c-.456.057-.91.34-.91 1.309v2.326h8.916v-2.215c0-.65-.114-1.277-.88-1.363l-2.017-.229v-1.986h11.585v1.986l-2.045.229c-.396.055-.851.369-.851 1.193v7.525c0 .767.283 1.278.879 1.334l2.017.227v1.959h-11.585v-1.931l2.017-.255c.681-.085.88-.625.88-1.334v-2.243h-8.916v2.271c0 .852.341 1.25.937 1.306l1.958.227v1.959h-11.556v-1.959l1.932-.227c.768-.085.965-.653.937-1.392v-7.324c0-.824-.227-1.309-.965-1.393l-1.931-.226zm38.6719 12.2402c-3.292 0-5.167-1.222-5.167-4.969 0-3.804 1.875-5.029 5.167-5.029 3.294 0 5.169 1.225 5.169 5.029 0 3.747-1.875 4.969-5.169 4.969m-11.81-4.941c0 4.542 3.663 7.723 11.839 7.723 8.122 0 11.785-3.181 11.785-7.723 0-4.657-3.663-7.809-11.785-7.809-8.176 0-11.839 3.152-11.839 7.809m24.269-7.2992h9.257v1.932l-1.989.226c-.569.057-.909.535-.909 1.194v7.354l7.697-10.138c.253-.341.736-.568 1.19-.568h7.269v10.961c0 .514.137 1.218.881 1.306l2.014.227v1.959h-9.255v-1.931l2.017-.255c.712-.086.879-.681.879-1.362v-7.157l-7.638 10.081c-.283.369-.652.624-1.192.624h-10.221v-1.959l1.93-.227c.68-.101.937-.447.937-1.392v-7.324c0-.869-.237-1.287-.966-1.393l-1.901-.226z" fill="#c00"/></g></svg>